<mxfile host="app.diagrams.net" agent="Mozilla/5.0 (Windows NT 10.0; Win64; x64) AppleWebKit/537.36 (KHTML, like Gecko) Chrome/128.0.0.0 Safari/537.36" version="24.7.16">
  <diagram name="Página-1" id="xC3IDfEOeGeeoKpa32cC">
    <mxGraphModel dx="880" dy="416" grid="1" gridSize="10" guides="1" tooltips="1" connect="1" arrows="1" fold="1" page="1" pageScale="1" pageWidth="827" pageHeight="1169" math="0" shadow="0">
      <root>
        <mxCell id="0" />
        <mxCell id="1" parent="0" />
        <mxCell id="eKghHrFIvK1k567l9pEH-8" style="edgeStyle=orthogonalEdgeStyle;rounded=0;orthogonalLoop=1;jettySize=auto;html=1;" edge="1" parent="1" source="eKghHrFIvK1k567l9pEH-6" target="eKghHrFIvK1k567l9pEH-7">
          <mxGeometry relative="1" as="geometry" />
        </mxCell>
        <mxCell id="eKghHrFIvK1k567l9pEH-10" style="edgeStyle=orthogonalEdgeStyle;rounded=0;orthogonalLoop=1;jettySize=auto;html=1;" edge="1" parent="1" source="eKghHrFIvK1k567l9pEH-6" target="eKghHrFIvK1k567l9pEH-9">
          <mxGeometry relative="1" as="geometry" />
        </mxCell>
        <mxCell id="eKghHrFIvK1k567l9pEH-14" style="edgeStyle=orthogonalEdgeStyle;rounded=0;orthogonalLoop=1;jettySize=auto;html=1;" edge="1" parent="1" source="eKghHrFIvK1k567l9pEH-6" target="eKghHrFIvK1k567l9pEH-11">
          <mxGeometry relative="1" as="geometry" />
        </mxCell>
        <mxCell id="eKghHrFIvK1k567l9pEH-15" style="edgeStyle=orthogonalEdgeStyle;rounded=0;orthogonalLoop=1;jettySize=auto;html=1;" edge="1" parent="1" source="eKghHrFIvK1k567l9pEH-6" target="eKghHrFIvK1k567l9pEH-12">
          <mxGeometry relative="1" as="geometry" />
        </mxCell>
        <mxCell id="eKghHrFIvK1k567l9pEH-19" style="edgeStyle=orthogonalEdgeStyle;rounded=0;orthogonalLoop=1;jettySize=auto;html=1;" edge="1" parent="1" source="eKghHrFIvK1k567l9pEH-6" target="eKghHrFIvK1k567l9pEH-18">
          <mxGeometry relative="1" as="geometry" />
        </mxCell>
        <mxCell id="eKghHrFIvK1k567l9pEH-6" value="&lt;p style=&quot;margin:0px;margin-top:4px;text-align:center;&quot;&gt;&lt;b&gt;Bem-Vindo&lt;/b&gt;&lt;/p&gt;&lt;hr size=&quot;1&quot; style=&quot;border-style:solid;&quot;&gt;&lt;div style=&quot;height:2px;&quot;&gt;&amp;nbsp;Exemplo:&amp;nbsp;Olá, sou a Ceci!&amp;nbsp; &amp;nbsp;Como posso te ajudar?&lt;/div&gt;" style="verticalAlign=top;align=left;overflow=fill;html=1;whiteSpace=wrap;" vertex="1" parent="1">
          <mxGeometry x="330" y="310" width="150" height="70" as="geometry" />
        </mxCell>
        <mxCell id="eKghHrFIvK1k567l9pEH-7" value="&lt;p style=&quot;margin:0px;margin-top:4px;text-align:center;&quot;&gt;&lt;b&gt;Informações das Linhas&lt;/b&gt;&lt;/p&gt;&lt;hr size=&quot;1&quot; style=&quot;border-style:solid;&quot;&gt;&lt;div style=&quot;height:2px;&quot;&gt;&amp;nbsp;Exemplo: integrações das&amp;nbsp; &amp;nbsp;linhas, localização&lt;/div&gt;" style="verticalAlign=top;align=left;overflow=fill;html=1;whiteSpace=wrap;" vertex="1" parent="1">
          <mxGeometry x="10" y="410" width="150" height="80" as="geometry" />
        </mxCell>
        <mxCell id="eKghHrFIvK1k567l9pEH-25" style="edgeStyle=orthogonalEdgeStyle;rounded=0;orthogonalLoop=1;jettySize=auto;html=1;" edge="1" parent="1" source="eKghHrFIvK1k567l9pEH-9" target="eKghHrFIvK1k567l9pEH-24">
          <mxGeometry relative="1" as="geometry" />
        </mxCell>
        <mxCell id="eKghHrFIvK1k567l9pEH-9" value="&lt;p style=&quot;margin:0px;margin-top:4px;text-align:center;&quot;&gt;&lt;b&gt;Paradas/Estações&lt;/b&gt;&lt;br&gt;&lt;/p&gt;&lt;hr size=&quot;1&quot; style=&quot;border-style:solid;&quot;&gt;&lt;div style=&quot;height:2px;&quot;&gt;&amp;nbsp;Exemplo: integrações das&amp;nbsp; &amp;nbsp;linhas, localização&lt;/div&gt;" style="verticalAlign=top;align=left;overflow=fill;html=1;whiteSpace=wrap;" vertex="1" parent="1">
          <mxGeometry x="170" y="410" width="150" height="80" as="geometry" />
        </mxCell>
        <mxCell id="eKghHrFIvK1k567l9pEH-11" value="&lt;p style=&quot;margin:0px;margin-top:4px;text-align:center;&quot;&gt;&lt;b&gt;Horário de funcionamento&lt;/b&gt;&lt;/p&gt;&lt;hr size=&quot;1&quot; style=&quot;border-style:solid;&quot;&gt;&lt;div style=&quot;height:2px;&quot;&gt;&amp;nbsp;Exemplo:&amp;nbsp; abertura do&amp;nbsp; &amp;nbsp;metrô, encerramento&lt;/div&gt;" style="verticalAlign=top;align=left;overflow=fill;html=1;whiteSpace=wrap;" vertex="1" parent="1">
          <mxGeometry x="330" y="410" width="150" height="80" as="geometry" />
        </mxCell>
        <mxCell id="eKghHrFIvK1k567l9pEH-17" style="edgeStyle=orthogonalEdgeStyle;rounded=0;orthogonalLoop=1;jettySize=auto;html=1;" edge="1" parent="1" source="eKghHrFIvK1k567l9pEH-12" target="eKghHrFIvK1k567l9pEH-16">
          <mxGeometry relative="1" as="geometry" />
        </mxCell>
        <mxCell id="eKghHrFIvK1k567l9pEH-12" value="&lt;p style=&quot;margin:0px;margin-top:4px;text-align:center;&quot;&gt;&lt;b&gt;Emergência&lt;/b&gt;&lt;/p&gt;&lt;hr size=&quot;1&quot; style=&quot;border-style:solid;&quot;&gt;&lt;div style=&quot;height:2px;&quot;&gt;&amp;nbsp;Exemplo: acidente, roubo,&amp;nbsp; &amp;nbsp;atos discriminatórios&lt;/div&gt;" style="verticalAlign=top;align=left;overflow=fill;html=1;whiteSpace=wrap;" vertex="1" parent="1">
          <mxGeometry x="490" y="410" width="150" height="80" as="geometry" />
        </mxCell>
        <mxCell id="eKghHrFIvK1k567l9pEH-16" value="&lt;p style=&quot;margin:0px;margin-top:4px;text-align:center;&quot;&gt;&lt;b&gt;Informações do incidente&lt;/b&gt;&lt;/p&gt;&lt;hr size=&quot;1&quot; style=&quot;border-style:solid;&quot;&gt;&lt;div style=&quot;height:2px;&quot;&gt;&amp;nbsp;Exemplo: onde ocorreu,&amp;nbsp; &amp;nbsp;em qual linha e estação&lt;/div&gt;" style="verticalAlign=top;align=left;overflow=fill;html=1;whiteSpace=wrap;" vertex="1" parent="1">
          <mxGeometry x="490" y="525" width="150" height="70" as="geometry" />
        </mxCell>
        <mxCell id="eKghHrFIvK1k567l9pEH-22" style="edgeStyle=orthogonalEdgeStyle;rounded=0;orthogonalLoop=1;jettySize=auto;html=1;" edge="1" parent="1" source="eKghHrFIvK1k567l9pEH-18" target="eKghHrFIvK1k567l9pEH-21">
          <mxGeometry relative="1" as="geometry" />
        </mxCell>
        <mxCell id="eKghHrFIvK1k567l9pEH-23" style="edgeStyle=orthogonalEdgeStyle;rounded=0;orthogonalLoop=1;jettySize=auto;html=1;" edge="1" parent="1" source="eKghHrFIvK1k567l9pEH-18" target="eKghHrFIvK1k567l9pEH-20">
          <mxGeometry relative="1" as="geometry" />
        </mxCell>
        <mxCell id="eKghHrFIvK1k567l9pEH-18" value="&lt;p style=&quot;margin:0px;margin-top:4px;text-align:center;&quot;&gt;&lt;b&gt;Bilhetes&lt;/b&gt;&lt;/p&gt;&lt;hr size=&quot;1&quot; style=&quot;border-style:solid;&quot;&gt;&lt;div style=&quot;height:2px;&quot;&gt;&amp;nbsp;Exemplo: acidente, roubo,&amp;nbsp; &amp;nbsp;atos discriminatórios&lt;/div&gt;" style="verticalAlign=top;align=left;overflow=fill;html=1;whiteSpace=wrap;" vertex="1" parent="1">
          <mxGeometry x="740" y="410" width="150" height="80" as="geometry" />
        </mxCell>
        <mxCell id="eKghHrFIvK1k567l9pEH-20" value="&lt;p style=&quot;margin:0px;margin-top:4px;text-align:center;&quot;&gt;&lt;b&gt;Bilhete único personalizado&lt;/b&gt;&lt;/p&gt;&lt;hr size=&quot;1&quot; style=&quot;border-style:solid;&quot;&gt;&lt;div style=&quot;height:2px;&quot;&gt;&amp;nbsp;Exemplo: como solicitar,&amp;nbsp; &amp;nbsp;para quem se aplica&lt;/div&gt;" style="verticalAlign=top;align=left;overflow=fill;html=1;whiteSpace=wrap;" vertex="1" parent="1">
          <mxGeometry x="660" y="520" width="150" height="80" as="geometry" />
        </mxCell>
        <mxCell id="eKghHrFIvK1k567l9pEH-21" value="&lt;p style=&quot;margin:0px;margin-top:4px;text-align:center;&quot;&gt;&lt;b&gt;Bilhete único estudantil&lt;/b&gt;&lt;/p&gt;&lt;hr size=&quot;1&quot; style=&quot;border-style:solid;&quot;&gt;&lt;div style=&quot;height:2px;&quot;&gt;&amp;nbsp;Exemplo: como solicitar,&amp;nbsp; &amp;nbsp;para quem se aplica&lt;/div&gt;" style="verticalAlign=top;align=left;overflow=fill;html=1;whiteSpace=wrap;" vertex="1" parent="1">
          <mxGeometry x="827" y="520" width="150" height="80" as="geometry" />
        </mxCell>
        <mxCell id="eKghHrFIvK1k567l9pEH-24" value="&lt;p style=&quot;margin:0px;margin-top:4px;text-align:center;&quot;&gt;&lt;b&gt;Estações da linha 4&lt;/b&gt;&lt;br&gt;&lt;/p&gt;&lt;hr size=&quot;1&quot; style=&quot;border-style:solid;&quot;&gt;&lt;div style=&quot;height:2px;&quot;&gt;&amp;nbsp;Exemplo: luz, republica,&amp;nbsp; &amp;nbsp;paulista&lt;/div&gt;" style="verticalAlign=top;align=left;overflow=fill;html=1;whiteSpace=wrap;" vertex="1" parent="1">
          <mxGeometry x="170" y="520" width="150" height="80" as="geometry" />
        </mxCell>
      </root>
    </mxGraphModel>
  </diagram>
</mxfile>
